<?xml version="1.0" encoding="UTF-8"?>
<svg version="1.1" xmlns="http://www.w3.org/2000/svg" width="108" height="52">
<path d="M0 0 C2.82426559 2.20416736 4.23102747 4.95208461 5.90673828 8.08007812 C8.34544101 12.3627843 11.20831672 16.39891999 13.9375 20.5 C15.09869263 22.25630385 16.25406437 24.01647636 17.40234375 25.78125 C17.90241943 26.54501953 18.40249512 27.30878906 18.91772461 28.09570312 C20 30 20 30 20 32 C16.4000654 33.7999673 12.89110996 33.9775695 9 33 C4.10737473 28.80493714 1.09114221 22.73831662 -1.76171875 17.04296875 C-3.21233017 14.6496887 -4.96425768 12.90716912 -7 11 C-13.80665624 21.0202188 -13.80665624 21.0202188 -20.1875 31.3125 C-23.60645744 37.12764983 -27.2118726 43.2118726 -32 48 C-34.09375 48.30078125 -34.09375 48.30078125 -36.5 48.3125 C-37.2940625 48.32925781 -38.088125 48.34601562 -38.90625 48.36328125 C-39.5971875 48.24339844 -40.288125 48.12351563 -41 48 C-41.66 47.01 -42.32 46.02 -43 45 C-42.38253906 44.07960937 -41.76507813 43.15921875 -41.12890625 42.2109375 C-33.09794735 30.21803887 -25.14869374 18.20627033 -17.91772461 5.70898438 C-13.71587573 -1.44652556 -7.92693395 -1.52036489 0 0 Z " fill="#FBFCFC" transform="translate(44,2)"/>
<path d="M0 0 C2.02623767 0.08877972 4.0477354 0.12295297 6.07568359 0.14697266 C15.92985026 0.37613932 15.92985026 0.37613932 18.26708984 2.71337891 C18.51593655 5.20071484 18.64343385 7.57285765 18.67333984 10.06494141 C18.68473999 10.79780365 18.69614014 11.53066589 18.70788574 12.28573608 C18.72679659 13.84082259 18.73985808 15.39598945 18.74755859 16.95117188 C18.76685417 19.30957418 18.82881253 21.66439846 18.89208984 24.02197266 C19.08382159 37.70256976 19.08382159 37.70256976 13.81835938 43.38500977 C9.19269674 47.3460155 5.03402192 48.83675879 -0.99072266 48.84619141 C-1.78091797 48.84748047 -2.57111328 48.84876953 -3.38525391 48.85009766 C-4.20123047 48.84623047 -5.01720703 48.84236328 -5.85791016 48.83837891 C-7.09347656 48.84417969 -7.09347656 48.84417969 -8.35400391 48.85009766 C-14.47952346 48.84007226 -14.47952346 48.84007226 -16.73291016 47.71337891 C-15.35023312 43.68057087 -13.7792432 40.72498177 -10.73291016 37.71337891 C-8.00218804 37.20396003 -5.83396658 36.96860124 -3.10791016 36.96337891 C1.72720283 37.04220607 1.72720283 37.04220607 6.26708984 35.71337891 C7.24025794 32.7938746 7.46004445 30.65892939 7.58349609 27.60791016 C7.621604 26.72208252 7.65971191 25.83625488 7.69897461 24.92358398 C7.74207764 23.80234131 7.78518066 22.68109863 7.82958984 21.52587891 C7.97396484 17.95775391 8.11833984 14.38962891 8.26708984 10.71337891 C-0.31291016 10.71337891 -8.89291016 10.71337891 -17.73291016 10.71337891 C-18.06291016 10.05337891 -18.39291016 9.39337891 -18.73291016 8.71337891 C-14.66430175 -0.14197482 -9.15702483 -0.40125029 0 0 Z " fill="#FCFCFC" transform="translate(87.73291015625,1.28662109375)"/>
<path d="M0 0 C1.8514861 0.04015115 3.70305527 0.07664909 5.5546875 0.109375 C10.08018032 0.19730992 14.60167987 0.33521602 19.125 0.5 C19.7421875 2.30078125 19.7421875 2.30078125 20.125 4.5 C18.63094347 7.0398961 17.21962345 9.40537655 15.125 11.5 C12.16794679 11.58868299 9.23434944 11.61520296 6.27734375 11.59765625 C4.94770348 11.59553383 4.94770348 11.59553383 3.59120178 11.59336853 C0.74826746 11.58775215 -2.09458931 11.57519691 -4.9375 11.5625 C-6.86002491 11.55748711 -8.78255104 11.55292384 -10.70507812 11.54882812 C-15.42841549 11.53777741 -20.15169458 11.52050183 -24.875 11.5 C-25.875 8.5 -25.875 8.5 -25.35888672 6.47460938 C-20.21016217 -2.82933843 -9.18532376 -0.3445309 0 0 Z " fill="#FCFDFD" transform="translate(46.875,38.5)"/>
</svg>
